<?xml version="1.0" encoding="UTF-8" standalone="no"?>
<!-- Created with Inkscape (http://www.inkscape.org/) -->

<svg
   width="210mm"
   height="297mm"
   viewBox="0 0 210 297"
   version="1.1"
   id="svg5"
   xml:space="preserve"
   inkscape:version="1.2.2 (732a01da63, 2022-12-09, custom)"
   sodipodi:docname="logo.svg"
   xmlns:inkscape="http://www.inkscape.org/namespaces/inkscape"
   xmlns:sodipodi="http://sodipodi.sourceforge.net/DTD/sodipodi-0.dtd"
   xmlns="http://www.w3.org/2000/svg"
   xmlns:svg="http://www.w3.org/2000/svg"><sodipodi:namedview
     id="namedview7"
     pagecolor="#ffffff"
     bordercolor="#000000"
     borderopacity="0.25"
     inkscape:showpageshadow="2"
     inkscape:pageopacity="0.0"
     inkscape:pagecheckerboard="0"
     inkscape:deskcolor="#d1d1d1"
     inkscape:document-units="mm"
     showgrid="false"
     inkscape:zoom="0.74055809"
     inkscape:cx="495.5722"
     inkscape:cy="777.11662"
     inkscape:window-width="1920"
     inkscape:window-height="1020"
     inkscape:window-x="0"
     inkscape:window-y="28"
     inkscape:window-maximized="1"
     inkscape:current-layer="g746" /><defs
     id="defs2"><inkscape:path-effect
       effect="powerclip"
       id="path-effect2262"
       is_visible="true"
       lpeversion="1"
       inverse="true"
       flatten="false"
       hide_clip="false"
       message="Utilice la regla de relleno parimpar en el diálogo &lt;b&gt;Relleno y borde&lt;/b&gt; si el resultado no está aplanada después de convertir el recorte en trayectos." /><inkscape:path-effect
       effect="powerclip"
       id="path-effect2237"
       is_visible="true"
       lpeversion="1"
       inverse="true"
       flatten="false"
       hide_clip="false"
       message="Utilice la regla de relleno parimpar en el diálogo &lt;b&gt;Relleno y borde&lt;/b&gt; si el resultado no está aplanada después de convertir el recorte en trayectos." /><inkscape:path-effect
       effect="powerclip"
       id="path-effect762"
       is_visible="true"
       lpeversion="1"
       inverse="true"
       flatten="false"
       hide_clip="false"
       message="Utilice la regla de relleno parimpar en el diálogo &lt;b&gt;Relleno y borde&lt;/b&gt; si el resultado no está aplanada después de convertir el recorte en trayectos." /><inkscape:path-effect
       effect="powerclip"
       id="path-effect758"
       is_visible="true"
       lpeversion="1"
       inverse="true"
       flatten="false"
       hide_clip="false"
       message="Utilice la regla de relleno parimpar en el diálogo &lt;b&gt;Relleno y borde&lt;/b&gt; si el resultado no está aplanada después de convertir el recorte en trayectos." /><inkscape:path-effect
       effect="powerclip"
       id="path-effect440"
       is_visible="true"
       lpeversion="1"
       inverse="true"
       flatten="false"
       hide_clip="false"
       message="Utilice la regla de relleno parimpar en el diálogo &lt;b&gt;Relleno y borde&lt;/b&gt; si el resultado no está aplanada después de convertir el recorte en trayectos." /><inkscape:path-effect
       effect="powerclip"
       id="path-effect372"
       is_visible="true"
       lpeversion="1"
       inverse="true"
       flatten="false"
       hide_clip="false"
       message="Utilice la regla de relleno parimpar en el diálogo &lt;b&gt;Relleno y borde&lt;/b&gt; si el resultado no está aplanada después de convertir el recorte en trayectos." /><clipPath
       clipPathUnits="userSpaceOnUse"
       id="clipPath368"><path
         style="display:none;fill:#0000ff;fill-rule:evenodd;stroke-width:0.264583;paint-order:fill markers stroke"
         d="m 70.952442,158.43494 c 0,0 -9.302054,13.73332 -5.176285,23.18959 4.12577,9.45626 5.901667,-1.72395 5.901667,-1.72395 0,0 3.174333,-5.90963 -0.725382,-21.46564 z"
         id="path370" /><path
         id="lpe_path-effect372"
         style="fill:#0000ff;fill-rule:evenodd;stroke-width:0.264583;paint-order:fill markers stroke"
         class="powerclip"
         d="m 55.321398,117.72887 h 25.72863 v 74.73326 h -25.72863 z m 15.631044,40.70607 c 0,0 -9.302054,13.73332 -5.176285,23.18959 4.12577,9.45626 5.901667,-1.72395 5.901667,-1.72395 0,0 3.174333,-5.90963 -0.725382,-21.46564 z" /></clipPath><clipPath
       clipPathUnits="userSpaceOnUse"
       id="clipPath436"><path
         style="display:none;fill:#0000ff;fill-rule:evenodd;stroke-width:0.264583;paint-order:fill markers stroke"
         d="m 89.949962,145.22346 c 0,0 0.327271,3.98443 1.944902,2.67229 1.617628,-1.31214 0.859827,-3.35027 0.859827,-3.35027 0,0 -1.751484,-2.73919 -2.804729,0.67798 z"
         id="path438" /><path
         id="lpe_path-effect440"
         style="fill:#0000ff;fill-rule:evenodd;stroke-width:0.264583;paint-order:fill markers stroke"
         class="powerclip"
         d="m 83.08984,137.45098 h 17.83575 v 21.87061 H 83.08984 Z m 6.860122,7.77248 c 0,0 0.327271,3.98443 1.944902,2.67229 1.617628,-1.31214 0.859827,-3.35027 0.859827,-3.35027 0,0 -1.751484,-2.73919 -2.804729,0.67798 z" /></clipPath><clipPath
       clipPathUnits="userSpaceOnUse"
       id="clipath_lpe_path-effect758"><path
         style="display:none;fill:#0000ff;fill-rule:evenodd;stroke-width:0.264583;paint-order:fill markers stroke"
         d="m 70.952442,158.43494 c 0,0 -9.302054,13.73332 -5.176285,23.18959 4.12577,9.45626 5.901667,-1.72395 5.901667,-1.72395 0,0 3.174333,-5.90963 -0.725382,-21.46564 z"
         id="path764" /><path
         id="lpe_path-effect758"
         style="fill:#0000ff;fill-rule:evenodd;stroke-width:0.264583;paint-order:fill markers stroke"
         class="powerclip"
         d="m 55.321398,117.72525 h 25.72863 v 74.73688 h -25.72863 z m 15.631044,40.70969 c 0,0 -9.302054,13.73332 -5.176285,23.18959 4.12577,9.45626 5.901667,-1.72395 5.901667,-1.72395 0,0 3.174333,-5.90963 -0.725382,-21.46564 z" /></clipPath><clipPath
       clipPathUnits="userSpaceOnUse"
       id="clipath_lpe_path-effect762"><path
         id="lpe_path-effect762"
         style="fill:#0000ff;fill-rule:evenodd;stroke-width:0.264583;paint-order:fill markers stroke"
         class="powerclip"
         d="m 83.08984,137.45098 h 17.83575 v 21.87061 H 83.08984 Z m 6.860122,7.77248 c 0,0 0.327271,3.98443 1.944902,2.67229 1.617628,-1.31214 0.859827,-3.35027 0.859827,-3.35027 0,0 -1.751484,-2.73919 -2.804729,0.67798 z" /></clipPath><clipPath
       clipPathUnits="userSpaceOnUse"
       id="clipath_lpe_path-effect2237"><path
         style="display:none;fill:#0000ff;fill-rule:evenodd;stroke-width:0.264583;paint-order:fill markers stroke"
         d="m 70.952442,158.43494 c 0,0 -9.302054,13.73332 -5.176285,23.18959 4.12577,9.45626 5.901667,-1.72395 5.901667,-1.72395 0,0 3.174333,-5.90963 -0.725382,-21.46564 z"
         id="path2239" /><path
         id="lpe_path-effect2237"
         style="fill:#0000ff;fill-rule:evenodd;stroke-width:0.264583;paint-order:fill markers stroke"
         class="powerclip"
         d="m 55.321398,117.72525 h 25.72863 v 74.73688 h -25.72863 z m 15.631044,40.70969 c 0,0 -9.302054,13.73332 -5.176285,23.18959 4.12577,9.45626 5.901667,-1.72395 5.901667,-1.72395 0,0 3.174333,-5.90963 -0.725382,-21.46564 z" /></clipPath><clipPath
       clipPathUnits="userSpaceOnUse"
       id="clipath_lpe_path-effect2262"><path
         style="display:none;fill:#0000ff;fill-rule:evenodd;stroke-width:0.264583;paint-order:fill markers stroke"
         d="m 70.952442,158.43494 c 0,0 -9.302054,13.73332 -5.176285,23.18959 4.12577,9.45626 5.901667,-1.72395 5.901667,-1.72395 0,0 3.174333,-5.90963 -0.725382,-21.46564 z"
         id="path2264" /><path
         id="lpe_path-effect2262"
         style="fill:#0000ff;fill-rule:evenodd;stroke-width:0.264583;paint-order:fill markers stroke"
         class="powerclip"
         d="m 55.321398,117.72525 h 25.72863 v 74.73688 h -25.72863 z m 15.631044,40.70969 c 0,0 -9.302054,13.73332 -5.176285,23.18959 4.12577,9.45626 5.901667,-1.72395 5.901667,-1.72395 0,0 3.174333,-5.90963 -0.725382,-21.46564 z" /></clipPath></defs><g
     inkscape:label="Capa 1"
     inkscape:groupmode="layer"
     id="layer1"><g
       id="g730"
       style="fill:#2b0000"
       transform="translate(-31.663378,-57.477223)"><path
         style="fill:#2b0000;fill-rule:evenodd;stroke-width:0.264583;paint-order:fill markers stroke"
         d="m 70.094442,154.05473 c 0,0 -15.596115,17.99713 -7.384399,29.53739 8.21172,11.54026 12.630539,-6.40603 12.630539,-6.40603 v 0 0 c 0,0 1.489657,-4.79751 0.151794,-13.36814 -1.337863,-8.57064 -2.596388,-9.45066 -2.596388,-9.45066 0,0 3.154294,-9.40526 3.042206,-12.3865 -0.112088,-2.98125 -2.026719,-7.93715 -3.042206,-7.99726 -1.015484,-0.0601 1.623587,3.30294 1.734452,6.13104 0.110866,2.82811 -0.787146,9.29903 -2.597951,10.81281 -1.810806,1.51378 -3.224094,-14.16387 -3.224094,-14.16387 0,0 -3.404478,-14.39523 -6.381167,-14.02772 -2.976693,0.36751 -1.952064,5.53565 -0.04877,9.13558 1.903296,3.59993 6.333106,15.57927 7.715982,22.18336 z"
         id="path358"
         clip-path="url(#clipPath368)"
         inkscape:path-effect="#path-effect372"
         inkscape:original-d="m 70.094442,154.05473 c 0,0 -15.596115,17.99713 -7.384399,29.53739 8.21172,11.54026 12.630539,-6.40603 12.630539,-6.40603 v 0 0 c 0,0 1.489657,-4.79751 0.151794,-13.36814 -1.337863,-8.57064 -2.596388,-9.45066 -2.596388,-9.45066 0,0 3.154294,-9.40526 3.042206,-12.3865 -0.112088,-2.98125 -2.026719,-7.93715 -3.042206,-7.99726 -1.015484,-0.0601 1.623587,3.30294 1.734452,6.13104 0.110866,2.82811 -0.787146,9.29903 -2.597951,10.81281 -1.810806,1.51378 -3.224094,-14.16387 -3.224094,-14.16387 0,0 -3.404478,-14.39523 -6.381167,-14.02772 -2.976693,0.36751 -1.952064,5.53565 -0.04877,9.13558 1.903296,3.59993 6.333106,15.57927 7.715982,22.18336 z" /><path
         style="fill:#2b0000;fill-opacity:1;fill-rule:evenodd;stroke-width:0.264583;paint-order:fill markers stroke"
         d="m 77.993064,146.04476 c 0,0 1.907612,3.71747 1.579595,6.83522 -0.32802,3.11776 -0.205105,4.05099 0.636132,4.29196 0.841235,0.24097 3.054091,-1.19333 2.773315,-2.8021 -0.280776,-1.60877 -1.836703,-6.32233 -0.982623,-7.18014 0.85408,-0.85782 1.432952,-1.62677 1.829237,0.96231 0.396287,2.58908 0.331546,3.63032 0.951103,5.15326 0.619556,1.52294 -0.194017,2.10192 0.767368,2.3195 0.961387,0.21759 3.955817,0.18814 2.591176,-1.9046 -1.364642,-2.09274 -2.401586,-3.10974 -2.575396,-4.83838 -0.17381,-1.72864 -0.656405,-4.59465 -2.088822,-3.74993 -1.432415,0.84472 -1.479,0.26374 -2.424123,1.10319 -0.945121,0.83945 0,-4.53995 0,-5.76455 0,-1.2246 -0.779603,-6.27996 -3.023897,-5.46229 -2.244293,0.81767 -2.942992,1.87232 -0.03306,11.03655 z"
         id="path430" /><path
         style="fill:#2b0000;fill-opacity:1;fill-rule:evenodd;stroke-width:0.264583;paint-order:fill markers stroke"
         d="m 90.672512,142.60655 c 0,0 -4.039409,2.73617 -2.01472,7.28879 2.024687,4.55261 4.029272,4.56686 4.970332,4.36193 0.94106,-0.20493 2.88506,-1.9762 2.12515,-2.52055 -0.75992,-0.54436 -1.5448,-1.20042 -2.17867,-0.56823 -0.63387,0.63219 -2.209444,-0.16354 -2.263292,-1.07423 -0.05385,-0.9107 -0.0338,-0.57799 0.639231,-0.37875 0.673031,0.19924 2.845881,-0.56112 2.899061,-2.29805 0.0532,-1.73693 0.16653,-5.81 -4.177092,-4.81091 z"
         id="path432"
         clip-path="url(#clipPath436)"
         inkscape:path-effect="#path-effect440"
         inkscape:original-d="m 90.672512,142.60655 c 0,0 -4.039409,2.73617 -2.01472,7.28879 2.024687,4.55261 4.029272,4.56686 4.970332,4.36193 0.94106,-0.20493 2.88506,-1.9762 2.12515,-2.52055 -0.75992,-0.54436 -1.5448,-1.20042 -2.17867,-0.56823 -0.63387,0.63219 -2.209444,-0.16354 -2.263292,-1.07423 -0.05385,-0.9107 -0.0338,-0.57799 0.639231,-0.37875 0.673031,0.19924 2.845881,-0.56112 2.899061,-2.29805 0.0532,-1.73693 0.16653,-5.81 -4.177092,-4.81091 z" /><path
         style="fill:#2b0000;fill-opacity:1;fill-rule:evenodd;stroke-width:0.264583;paint-order:fill markers stroke"
         d="m 96.794663,122.61888 1.53774,16.13466 c 0,0 0.245043,4.45516 2.327267,2.42205 2.08223,-2.03311 3.00267,-1.35832 3.01034,0.004 0.008,1.3623 3.49774,19.16061 3.31029,21.43956 -0.18745,2.27894 1.31433,16.00756 -2.20076,20.44976 -3.51509,4.4422 -8.170345,1.71682 -8.744044,-2.13637 -0.573698,-3.85319 -2.418032,-8.59853 -1.234553,-12.1165 1.183478,-3.51797 3.259756,-1.53883 2.912038,0.21389 -0.347718,1.75271 1.124956,12.31443 2.394269,13.21716 1.26932,0.90273 2.16374,-2.50364 2.16374,-2.50364 0,0 2.11979,-11.21053 1.21211,-20.39567 -0.90768,-9.18513 -1.93407,-15.89288 -1.93407,-15.89288 0,0 -1.999957,3.23044 -3.641861,0.73879 -1.641906,-2.49164 -5.649512,-11.25152 -4.377689,-17.87598 1.27182,-6.62447 2.504529,-8.93123 4.267403,-7.88927 1.762874,1.04195 3.785977,2.14664 3.015557,5.04918 -0.77042,2.90254 -1.427858,4.67789 -2.182556,0.49391 -0.754697,-4.18398 -1.4795,-4.07772 -1.835221,-1.35264 z"
         id="path444" /><path
         style="fill:#2b0000;fill-opacity:1;fill-rule:evenodd;stroke-width:0.264583;paint-order:fill markers stroke"
         d="m 108.27422,139.77422 c 0,0 0.53271,2.3772 1.03957,2.39792 0.50685,0.0207 0.72339,-0.80565 0.72339,-0.80565 l 1.8069,-0.35998 -1.5979,3.36946 c 0,0 -0.90287,0.28579 -0.90287,0.63419 0,0.34841 0.62555,0.51541 0.62555,0.51541 l -2.46212,4.81294 c 0,0 -1.14953,2.61847 0.9689,0.94413 2.11842,-1.67434 3.03177,0.70359 4.00687,0.76703 0.97509,0.0634 2.25981,-0.51535 2.43452,-1.26087 0.17472,-0.74553 0.79504,-2.15592 0.40471,-2.1699 -0.39033,-0.014 -0.76984,-0.6205 -1.55068,0.93358 -0.78084,1.55407 -2.35477,-0.11232 -2.76956,-0.62745 -0.41479,-0.51514 1.40071,-3.44424 1.40071,-3.44424 0,0 1.66607,-0.40957 1.61633,-0.60129 -0.0497,-0.19173 0.0622,-0.60698 -0.45676,-0.82708 -0.51899,-0.22011 2.10893,-4.78707 1.04263,-5.33048 -1.0663,-0.54341 -2.23393,-1.20092 -3.2944,-0.54442 -1.06047,0.65649 -2.70881,0.82169 -3.03579,1.5967 z"
         id="path446" /><path
         style="fill:#2b0000;fill-opacity:1;fill-rule:evenodd;stroke-width:0.264583;paint-order:fill markers stroke"
         d="m 117.03227,139.98244 c -0.46087,0.92411 0.30049,0.88028 0.27406,1.43432 -0.0264,0.55404 0.65226,6.46256 1.2888,7.81878 0.63654,1.35623 4.56871,3.37804 5.12975,-0.0843 0.56105,-3.46237 0.285,-5.54536 -0.0567,-6.50549 -0.34171,-0.96012 -1.15976,-3.92553 -2.02091,-3.59999 -0.86115,0.32553 -0.24279,3.60248 -0.15616,5.45751 0.0866,1.85503 0.57363,5.46368 -0.47358,2.80094 -1.04721,-2.66274 -1.77033,-7.13504 -1.7993,-7.48631 -0.029,-0.35127 -1.60937,-0.84968 -2.18596,0.16457 z"
         id="path448" /><path
         style="fill:#2b0000;fill-opacity:1;fill-rule:evenodd;stroke-width:0.264583;paint-order:fill markers stroke"
         d="m 126.01857,127.46085 c 0,0 4.14632,13.0944 3.34335,27.57418 -0.80296,14.47977 -0.92037,15.16094 -3.19886,19.5436 -2.27848,4.38266 -3.24842,7.82464 -0.49207,4.16936 2.75635,-3.65528 3.0979,-3.76731 3.69257,-3.58014 0.59467,0.18717 5.59526,2.59109 6.50197,0.94854 0.90671,-1.64255 1.11818,-4.80347 0.43993,-8.62155 -0.67824,-3.81808 -2.40644,-6.80508 -2.75972,-2.5109 -0.35328,4.29418 2.7335,4.97278 0.64387,6.20682 -2.08964,1.23404 -3.30505,0.40502 -3.80676,-0.39705 -0.50171,-0.80207 1.46817,-7.66768 1.46817,-7.66768 l 1.86945,-11.59357 c 0,0 0.96018,-14.54493 -0.88545,-19.75926 -1.84563,-5.21432 -6.09036,-22.21739 -6.81645,-4.31235 z"
         id="path450" /></g><ellipse
       style="fill:#0000ff;fill-rule:evenodd;stroke-width:0.264583;paint-order:fill markers stroke"
       id="path508"
       cx="49.364422"
       cy="72.725365"
       rx="1.1889014"
       ry="1.1397827" /><ellipse
       style="fill:#0000ff;fill-rule:evenodd;stroke-width:0.264583;paint-order:fill markers stroke"
       id="ellipse510"
       cx="75.224068"
       cy="72.391838"
       rx="1.1889014"
       ry="1.1397827" /><ellipse
       style="fill:#0000ff;fill-rule:evenodd;stroke-width:0.264583;paint-order:fill markers stroke"
       id="ellipse512"
       cx="87.945465"
       cy="103.99134"
       rx="1.1889014"
       ry="1.1397827" /><ellipse
       style="fill:#0000ff;fill-rule:evenodd;stroke-width:0.264583;paint-order:fill markers stroke"
       id="ellipse514"
       cx="54.342976"
       cy="105.28822"
       rx="1.1889014"
       ry="1.1397827" /><g
       id="g746"
       style="fill:#2b0000;fill-opacity:1"
       transform="translate(-27.637223,47.557827)"><g
         id="g2163"
         transform="translate(98.728832,-111.76181)"><path
           style="fill:#2b0000;fill-opacity:1;fill-rule:evenodd;stroke-width:0.264583;paint-order:fill markers stroke"
           d="m 70.094442,154.05473 c 0,0 -15.596115,17.99713 -7.384399,29.53739 8.21172,11.54026 12.630539,-6.40603 12.630539,-6.40603 v 0 0 c 0,0 1.489657,-4.79751 0.151794,-13.36814 -1.337863,-8.57064 -2.596388,-9.45066 -2.596388,-9.45066 0,0 3.154294,-9.40526 3.042206,-12.3865 -0.112088,-2.98125 -2.026719,-7.93715 -3.042206,-7.99726 -1.015484,-0.0601 1.623587,3.30294 1.734452,6.13104 0.110866,2.82811 -0.787146,9.29903 -2.597951,10.81281 -1.810806,1.51378 -2.158627,-7.88998 -3.224094,-14.16387 -0.860075,-5.06446 -3.404478,-14.39523 -6.381167,-14.02772 -2.976693,0.36751 -1.952064,5.53565 -0.04877,9.13558 1.903296,3.59993 6.333106,15.57927 7.715982,22.18336 z"
           id="path732"
           clip-path="url(#clipath_lpe_path-effect758)"
           inkscape:path-effect="#path-effect758"
           inkscape:original-d="m 70.094442,154.05473 c 0,0 -15.596115,17.99713 -7.384399,29.53739 8.21172,11.54026 12.630539,-6.40603 12.630539,-6.40603 v 0 0 c 0,0 1.489657,-4.79751 0.151794,-13.36814 -1.337863,-8.57064 -2.596388,-9.45066 -2.596388,-9.45066 0,0 3.154294,-9.40526 3.042206,-12.3865 -0.112088,-2.98125 -2.026719,-7.93715 -3.042206,-7.99726 -1.015484,-0.0601 1.623587,3.30294 1.734452,6.13104 0.110866,2.82811 -0.787146,9.29903 -2.597951,10.81281 -1.810806,1.51378 -2.158627,-7.88998 -3.224094,-14.16387 -0.860075,-5.06446 -3.404478,-14.39523 -6.381167,-14.02772 -2.976693,0.36751 -1.952064,5.53565 -0.04877,9.13558 1.903296,3.59993 6.333106,15.57927 7.715982,22.18336 z"
           transform="matrix(0.69328895,0,0,0.69328895,22.516338,46.018759)"
           sodipodi:nodetypes="cscccscssssssssc" /><path
           style="fill:#2b0000;fill-opacity:1;fill-rule:evenodd;stroke-width:0.264583;paint-order:fill markers stroke"
           d="m 78.322493,150.4675 c 0,0 1.907612,3.71747 1.579595,6.83522 -0.32802,3.11776 -0.205105,4.05099 0.636132,4.29196 0.841235,0.24097 3.054091,-1.19333 2.773315,-2.8021 -0.280776,-1.60877 -1.836703,-6.32233 -0.982623,-7.18014 0.85408,-0.85782 1.432952,-1.62677 1.829237,0.96231 0.396287,2.58908 0.331546,3.63032 0.951103,5.15326 0.619556,1.52294 -0.194017,2.10192 0.767368,2.3195 0.961387,0.21759 3.955817,0.18814 2.591176,-1.9046 -1.364642,-2.09274 -2.401586,-3.10974 -2.575396,-4.83838 -0.17381,-1.72864 -0.656405,-4.59465 -2.088822,-3.74993 -1.432415,0.84472 -1.479,0.26374 -2.424123,1.10319 -0.945121,0.83945 0,-4.53995 0,-5.76455 0,-1.2246 -0.779603,-6.27996 -3.023897,-5.46229 -2.244293,0.81767 -2.942992,1.87232 -0.03306,11.03655 z"
           id="path734" /><path
           style="fill:#2b0000;fill-opacity:1;fill-rule:evenodd;stroke-width:0.264583;paint-order:fill markers stroke"
           d="m 90.672512,142.60655 c -2.069709,0.47606 -4.039409,2.73617 -2.01472,7.28879 2.024687,4.55261 4.029272,4.56686 4.970332,4.36193 0.94106,-0.20493 2.88506,-1.9762 2.12515,-2.52055 -0.75992,-0.54436 -1.5448,-1.20042 -2.17867,-0.56823 -0.63387,0.63219 -2.209444,-0.16354 -2.263292,-1.07423 -0.05385,-0.9107 -0.0338,-0.57799 0.639231,-0.37875 0.673031,0.19924 2.845881,-0.56112 2.899061,-2.29805 0.0532,-1.73693 0.16653,-5.81 -4.177092,-4.81091 z"
           id="path736"
           clip-path="url(#clipath_lpe_path-effect762)"
           transform="translate(-1.099679,4.0832451)"
           sodipodi:nodetypes="sssssssss" /><path
           style="fill:#2b0000;fill-opacity:1;fill-rule:evenodd;stroke-width:0.181702;paint-order:fill markers stroke"
           d="m 94.676461,136.44419 0.664729,6.04725 c 0,0 0.537325,2.82448 2.265423,1.66912 1.728102,-1.15536 2.492007,-0.7719 2.498367,0.002 0.007,0.77415 2.6456,10.8847 2.74731,12.1835 0.12673,1.6185 1.0908,9.09665 -1.82648,11.62103 -2.917273,2.52438 -6.780804,0.97562 -7.256933,-1.21403 -0.476128,-2.18967 -2.006795,-4.88631 -1.024591,-6.88548 0.982202,-1.99916 2.705366,-0.87447 2.416784,0.12155 -0.288581,0.99601 0.933633,6.99795 1.987073,7.51095 1.053446,0.51299 1.79575,-1.42276 1.79575,-1.42276 0,0 1.759277,-6.37062 1.005966,-11.59029 -0.75331,-5.21965 -1.605141,-9.03148 -1.605141,-9.03148 0,0 -1.659822,1.83577 -3.022486,0.41984 -1.362665,-1.41594 -3.967773,-5.22855 -3.63317,-10.15843 0.262,-3.86018 2.078581,-5.07537 3.541641,-4.48326 1.46306,0.59212 3.142091,1.21989 2.502698,2.86932 -0.639394,1.64943 -1.185021,2.65831 -1.811366,0.28067 -0.626346,-2.37764 -1.69468,-2.20461 -1.526141,-0.60401 z"
           id="path738"
           sodipodi:nodetypes="ccscsssssscscssssssc" /><path
           style="fill:#2b0000;fill-opacity:1;fill-rule:evenodd;stroke-width:0.264583;paint-order:fill markers stroke"
           d="m 103.50698,143.12705 c 0,0 0.84831,2.28369 1.35334,2.23589 0.50501,-0.0478 0.60818,-0.89582 0.60818,-0.89582 l 1.74187,-0.60028 -1.12908,3.55412 c 0,0 -0.8561,0.40489 -0.80913,0.75011 0.047,0.34523 0.68932,0.42638 0.68932,0.42638 l -1.79082,5.10092 c 0,0 -0.78604,2.74953 1.08734,0.80489 1.87336,-1.94463 3.09894,0.28846 4.07369,0.21987 0.97474,-0.0686 2.16971,-0.81529 2.24232,-1.57755 0.0726,-0.76228 0.49715,-2.24342 0.1085,-2.20466 -0.38866,0.0387 -0.84647,-0.51105 -1.41067,1.13411 -0.56421,1.64515 -2.34842,0.20615 -2.82887,-0.24836 -0.48045,-0.45452 0.92361,-3.60163 0.92361,-3.60163 0,0 1.59565,-0.63043 1.52052,-0.8137 -0.0751,-0.18328 -0.0202,-0.60982 -0.56409,-0.75795 -0.54393,-0.14814 1.44434,-5.02768 0.31451,-5.42238 -1.12982,-0.3947 -2.14937,-0.47408 -3.33772,-0.0953 -0.98666,0.31449 -2.57331,1.17937 -2.79282,1.99138 z"
           id="path740"
           sodipodi:nodetypes="cscccsccssscsscsssscc" /><path
           style="fill:#2b0000;fill-opacity:1;fill-rule:evenodd;stroke-width:0.264583;paint-order:fill markers stroke"
           d="m 112.2825,141.49273 c -0.46087,0.92411 0.30049,0.88028 0.27406,1.43432 -0.0264,0.55404 0.65226,6.46256 1.2888,7.81878 0.63654,1.35623 4.56871,3.37804 5.12975,-0.0843 0.56105,-3.46237 0.285,-5.54536 -0.0567,-6.50549 -0.34171,-0.96012 -1.15976,-3.92553 -2.02091,-3.59999 -0.86115,0.32553 -0.24279,3.60248 -0.15616,5.45751 0.0866,1.85503 0.57363,5.46368 -0.47358,2.80094 -1.04721,-2.66274 -1.77033,-7.13504 -1.7993,-7.48631 -0.029,-0.35127 -1.60937,-0.84968 -2.18596,0.16457 z"
           id="path742" /><path
           style="fill:#2b0000;fill-opacity:1;fill-rule:evenodd;stroke-width:0.183432;paint-order:fill markers stroke"
           d="m 119.22727,128.88802 c -0.20686,3.05482 2.8746,9.0782 2.31791,19.11688 -0.55668,10.03866 -0.63808,10.51091 -2.21773,13.54936 -1.57965,3.03845 -2.2521,5.42473 -0.34115,2.89057 1.91095,-2.53417 2.14774,-2.61184 2.56002,-2.48207 0.41228,0.12976 3.87913,1.79637 4.50774,0.65761 0.62861,-1.13876 0.77522,-3.33019 0.305,-5.97723 -0.47021,-2.64703 -1.66836,-4.71788 -1.91328,-1.74077 -0.24493,2.9771 1.8951,3.44757 0.44639,4.30311 -1.44873,0.85555 -2.29136,0.2808 -2.63919,-0.27527 -0.34783,-0.55606 1.01787,-5.31591 1.01787,-5.31591 l 1.29607,-8.0377 c 0,0 0.66568,-10.08384 -0.61388,-13.69887 -1.27955,-3.61503 -3.8864,-15.38489 -4.72577,-2.98971 z"
           id="path744"
           sodipodi:nodetypes="ssssssssssccss" /></g><circle
         style="fill:#2b0000;fill-opacity:1;fill-rule:evenodd;stroke:#000000;stroke-width:0.316444;stroke-linecap:round;stroke-linejoin:round;stroke-dasharray:none;stroke-opacity:1;paint-order:stroke fill markers"
         id="path2217"
         cx="83.821167"
         cy="138.65991"
         r="37.938187"
         inkscape:export-filename="ourLogo.png"
         inkscape:export-xdpi="96"
         inkscape:export-ydpi="96" /><g
         id="g2233"
         transform="translate(98.728832,-111.76181)"><path
           style="fill:#2b0000;fill-opacity:1;fill-rule:evenodd;stroke-width:0.264583;paint-order:fill markers stroke"
           d="m 70.094442,154.05473 c 0,0 -15.596115,17.99713 -7.384399,29.53739 8.21172,11.54026 12.630539,-6.40603 12.630539,-6.40603 v 0 0 c 0,0 1.489657,-4.79751 0.151794,-13.36814 -1.337863,-8.57064 -2.596388,-9.45066 -2.596388,-9.45066 0,0 3.154294,-9.40526 3.042206,-12.3865 -0.112088,-2.98125 -2.026719,-7.93715 -3.042206,-7.99726 -1.015484,-0.0601 1.623587,3.30294 1.734452,6.13104 0.110866,2.82811 -0.787146,9.29903 -2.597951,10.81281 -1.810806,1.51378 -2.158627,-7.88998 -3.224094,-14.16387 -0.860075,-5.06446 -3.404478,-14.39523 -6.381167,-14.02772 -2.976693,0.36751 -1.952064,5.53565 -0.04877,9.13558 1.903296,3.59993 6.333106,15.57927 7.715982,22.18336 z"
           id="path2219"
           clip-path="url(#clipath_lpe_path-effect2237)"
           inkscape:path-effect="#path-effect2237"
           inkscape:original-d="m 70.094442,154.05473 c 0,0 -15.596115,17.99713 -7.384399,29.53739 8.21172,11.54026 12.630539,-6.40603 12.630539,-6.40603 v 0 0 c 0,0 1.489657,-4.79751 0.151794,-13.36814 -1.337863,-8.57064 -2.596388,-9.45066 -2.596388,-9.45066 0,0 3.154294,-9.40526 3.042206,-12.3865 -0.112088,-2.98125 -2.026719,-7.93715 -3.042206,-7.99726 -1.015484,-0.0601 1.623587,3.30294 1.734452,6.13104 0.110866,2.82811 -0.787146,9.29903 -2.597951,10.81281 -1.810806,1.51378 -2.158627,-7.88998 -3.224094,-14.16387 -0.860075,-5.06446 -3.404478,-14.39523 -6.381167,-14.02772 -2.976693,0.36751 -1.952064,5.53565 -0.04877,9.13558 1.903296,3.59993 6.333106,15.57927 7.715982,22.18336 z"
           transform="matrix(0.69328895,0,0,0.69328895,22.516338,46.018759)"
           sodipodi:nodetypes="cscccscssssssssc" /><path
           style="fill:#2b0000;fill-opacity:1;fill-rule:evenodd;stroke-width:0.264583;paint-order:fill markers stroke"
           d="m 78.322493,150.4675 c 0,0 1.907612,3.71747 1.579595,6.83522 -0.32802,3.11776 -0.205105,4.05099 0.636132,4.29196 0.841235,0.24097 3.054091,-1.19333 2.773315,-2.8021 -0.280776,-1.60877 -1.836703,-6.32233 -0.982623,-7.18014 0.85408,-0.85782 1.432952,-1.62677 1.829237,0.96231 0.396287,2.58908 0.331546,3.63032 0.951103,5.15326 0.619556,1.52294 -0.194017,2.10192 0.767368,2.3195 0.961387,0.21759 3.955817,0.18814 2.591176,-1.9046 -1.364642,-2.09274 -2.401586,-3.10974 -2.575396,-4.83838 -0.17381,-1.72864 -0.656405,-4.59465 -2.088822,-3.74993 -1.432415,0.84472 -1.479,0.26374 -2.424123,1.10319 -0.945121,0.83945 0,-4.53995 0,-5.76455 0,-1.2246 -0.779603,-6.27996 -3.023897,-5.46229 -2.244293,0.81767 -2.942992,1.87232 -0.03306,11.03655 z"
           id="path2221" /><path
           style="fill:#2b0000;fill-opacity:1;fill-rule:evenodd;stroke-width:0.264583;paint-order:fill markers stroke"
           d="m 90.672512,142.60655 c -2.069709,0.47606 -4.039409,2.73617 -2.01472,7.28879 2.024687,4.55261 4.029272,4.56686 4.970332,4.36193 0.94106,-0.20493 2.88506,-1.9762 2.12515,-2.52055 -0.75992,-0.54436 -1.5448,-1.20042 -2.17867,-0.56823 -0.63387,0.63219 -2.209444,-0.16354 -2.263292,-1.07423 -0.05385,-0.9107 -0.0338,-0.57799 0.639231,-0.37875 0.673031,0.19924 2.845881,-0.56112 2.899061,-2.29805 0.0532,-1.73693 0.16653,-5.81 -4.177092,-4.81091 z"
           id="path2223"
           clip-path="url(#clipath_lpe_path-effect762)"
           transform="translate(-1.099679,4.0832451)"
           sodipodi:nodetypes="sssssssss" /><path
           style="fill:#2b0000;fill-opacity:1;fill-rule:evenodd;stroke-width:0.181702;paint-order:fill markers stroke"
           d="m 94.676461,136.44419 0.664729,6.04725 c 0,0 0.537325,2.82448 2.265423,1.66912 1.728102,-1.15536 2.492007,-0.7719 2.498367,0.002 0.007,0.77415 2.6456,10.8847 2.74731,12.1835 0.12673,1.6185 1.0908,9.09665 -1.82648,11.62103 -2.917273,2.52438 -6.780804,0.97562 -7.256933,-1.21403 -0.476128,-2.18967 -2.006795,-4.88631 -1.024591,-6.88548 0.982202,-1.99916 2.705366,-0.87447 2.416784,0.12155 -0.288581,0.99601 0.933633,6.99795 1.987073,7.51095 1.053446,0.51299 1.79575,-1.42276 1.79575,-1.42276 0,0 1.759277,-6.37062 1.005966,-11.59029 -0.75331,-5.21965 -1.605141,-9.03148 -1.605141,-9.03148 0,0 -1.659822,1.83577 -3.022486,0.41984 -1.362665,-1.41594 -3.967773,-5.22855 -3.63317,-10.15843 0.262,-3.86018 2.078581,-5.07537 3.541641,-4.48326 1.46306,0.59212 3.142091,1.21989 2.502698,2.86932 -0.639394,1.64943 -1.185021,2.65831 -1.811366,0.28067 -0.626346,-2.37764 -1.69468,-2.20461 -1.526141,-0.60401 z"
           id="path2225"
           sodipodi:nodetypes="ccscsssssscscssssssc" /><path
           style="fill:#2b0000;fill-opacity:1;fill-rule:evenodd;stroke-width:0.264583;paint-order:fill markers stroke"
           d="m 103.50698,143.12705 c 0,0 0.84831,2.28369 1.35334,2.23589 0.50501,-0.0478 0.60818,-0.89582 0.60818,-0.89582 l 1.74187,-0.60028 -1.12908,3.55412 c 0,0 -0.8561,0.40489 -0.80913,0.75011 0.047,0.34523 0.68932,0.42638 0.68932,0.42638 l -1.79082,5.10092 c 0,0 -0.78604,2.74953 1.08734,0.80489 1.87336,-1.94463 3.09894,0.28846 4.07369,0.21987 0.97474,-0.0686 2.16971,-0.81529 2.24232,-1.57755 0.0726,-0.76228 0.49715,-2.24342 0.1085,-2.20466 -0.38866,0.0387 -0.84647,-0.51105 -1.41067,1.13411 -0.56421,1.64515 -2.34842,0.20615 -2.82887,-0.24836 -0.48045,-0.45452 0.92361,-3.60163 0.92361,-3.60163 0,0 1.59565,-0.63043 1.52052,-0.8137 -0.0751,-0.18328 -0.0202,-0.60982 -0.56409,-0.75795 -0.54393,-0.14814 1.44434,-5.02768 0.31451,-5.42238 -1.12982,-0.3947 -2.14937,-0.47408 -3.33772,-0.0953 -0.98666,0.31449 -2.57331,1.17937 -2.79282,1.99138 z"
           id="path2227"
           sodipodi:nodetypes="cscccsccssscsscsssscc" /><path
           style="fill:#2b0000;fill-opacity:1;fill-rule:evenodd;stroke-width:0.264583;paint-order:fill markers stroke"
           d="m 112.2825,141.49273 c -0.46087,0.92411 0.30049,0.88028 0.27406,1.43432 -0.0264,0.55404 0.65226,6.46256 1.2888,7.81878 0.63654,1.35623 4.56871,3.37804 5.12975,-0.0843 0.56105,-3.46237 0.285,-5.54536 -0.0567,-6.50549 -0.34171,-0.96012 -1.15976,-3.92553 -2.02091,-3.59999 -0.86115,0.32553 -0.24279,3.60248 -0.15616,5.45751 0.0866,1.85503 0.57363,5.46368 -0.47358,2.80094 -1.04721,-2.66274 -1.77033,-7.13504 -1.7993,-7.48631 -0.029,-0.35127 -1.60937,-0.84968 -2.18596,0.16457 z"
           id="path2229" /><path
           style="fill:#2b0000;fill-opacity:1;fill-rule:evenodd;stroke-width:0.183432;paint-order:fill markers stroke"
           d="m 119.22727,128.88802 c -0.20686,3.05482 2.8746,9.0782 2.31791,19.11688 -0.55668,10.03866 -0.63808,10.51091 -2.21773,13.54936 -1.57965,3.03845 -2.2521,5.42473 -0.34115,2.89057 1.91095,-2.53417 2.14774,-2.61184 2.56002,-2.48207 0.41228,0.12976 3.87913,1.79637 4.50774,0.65761 0.62861,-1.13876 0.77522,-3.33019 0.305,-5.97723 -0.47021,-2.64703 -1.66836,-4.71788 -1.91328,-1.74077 -0.24493,2.9771 1.8951,3.44757 0.44639,4.30311 -1.44873,0.85555 -2.29136,0.2808 -2.63919,-0.27527 -0.34783,-0.55606 1.01787,-5.31591 1.01787,-5.31591 l 1.29607,-8.0377 c 0,0 0.66568,-10.08384 -0.61388,-13.69887 -1.27955,-3.61503 -3.8864,-15.38489 -4.72577,-2.98971 z"
           id="path2231"
           sodipodi:nodetypes="ssssssssssccss" /></g><g
         id="g2258"
         transform="matrix(0.89915693,0,0,0.89915693,-1.984044,4.6346735)"
         style="fill:#ffffff"><path
           style="fill:#ffffff;fill-opacity:1;fill-rule:evenodd;stroke-width:0.264583;paint-order:fill markers stroke"
           d="m 70.094442,154.05473 c 0,0 -15.596115,17.99713 -7.384399,29.53739 8.21172,11.54026 12.630539,-6.40603 12.630539,-6.40603 v 0 0 c 0,0 1.489657,-4.79751 0.151794,-13.36814 -1.337863,-8.57064 -2.596388,-9.45066 -2.596388,-9.45066 0,0 3.154294,-9.40526 3.042206,-12.3865 -0.112088,-2.98125 -2.026719,-7.93715 -3.042206,-7.99726 -1.015484,-0.0601 1.623587,3.30294 1.734452,6.13104 0.110866,2.82811 -0.787146,9.29903 -2.597951,10.81281 -1.810806,1.51378 -2.158627,-7.88998 -3.224094,-14.16387 -0.860075,-5.06446 -3.404478,-14.39523 -6.381167,-14.02772 -2.976693,0.36751 -1.952064,5.53565 -0.04877,9.13558 1.903296,3.59993 6.333106,15.57927 7.715982,22.18336 z"
           id="path2244"
           clip-path="url(#clipath_lpe_path-effect2262)"
           inkscape:path-effect="#path-effect2262"
           inkscape:original-d="m 70.094442,154.05473 c 0,0 -15.596115,17.99713 -7.384399,29.53739 8.21172,11.54026 12.630539,-6.40603 12.630539,-6.40603 v 0 0 c 0,0 1.489657,-4.79751 0.151794,-13.36814 -1.337863,-8.57064 -2.596388,-9.45066 -2.596388,-9.45066 0,0 3.154294,-9.40526 3.042206,-12.3865 -0.112088,-2.98125 -2.026719,-7.93715 -3.042206,-7.99726 -1.015484,-0.0601 1.623587,3.30294 1.734452,6.13104 0.110866,2.82811 -0.787146,9.29903 -2.597951,10.81281 -1.810806,1.51378 -2.158627,-7.88998 -3.224094,-14.16387 -0.860075,-5.06446 -3.404478,-14.39523 -6.381167,-14.02772 -2.976693,0.36751 -1.952064,5.53565 -0.04877,9.13558 1.903296,3.59993 6.333106,15.57927 7.715982,22.18336 z"
           transform="matrix(0.69328895,0,0,0.69328895,22.516338,46.018759)"
           sodipodi:nodetypes="cscccscssssssssc" /><path
           style="fill:#ffffff;fill-opacity:1;fill-rule:evenodd;stroke-width:0.264583;paint-order:fill markers stroke"
           d="m 78.322493,150.4675 c 0,0 1.907612,3.71747 1.579595,6.83522 -0.32802,3.11776 -0.205105,4.05099 0.636132,4.29196 0.841235,0.24097 3.054091,-1.19333 2.773315,-2.8021 -0.280776,-1.60877 -1.836703,-6.32233 -0.982623,-7.18014 0.85408,-0.85782 1.432952,-1.62677 1.829237,0.96231 0.396287,2.58908 0.331546,3.63032 0.951103,5.15326 0.619556,1.52294 -0.194017,2.10192 0.767368,2.3195 0.961387,0.21759 3.955817,0.18814 2.591176,-1.9046 -1.364642,-2.09274 -2.401586,-3.10974 -2.575396,-4.83838 -0.17381,-1.72864 -0.656405,-4.59465 -2.088822,-3.74993 -1.432415,0.84472 -1.479,0.26374 -2.424123,1.10319 -0.945121,0.83945 0,-4.53995 0,-5.76455 0,-1.2246 -0.779603,-6.27996 -3.023897,-5.46229 -2.244293,0.81767 -2.942992,1.87232 -0.03306,11.03655 z"
           id="path2246" /><path
           style="fill:#ffffff;fill-opacity:1;fill-rule:evenodd;stroke-width:0.264583;paint-order:fill markers stroke"
           d="m 90.672512,142.60655 c -2.069709,0.47606 -4.039409,2.73617 -2.01472,7.28879 2.024687,4.55261 4.029272,4.56686 4.970332,4.36193 0.94106,-0.20493 2.88506,-1.9762 2.12515,-2.52055 -0.75992,-0.54436 -1.5448,-1.20042 -2.17867,-0.56823 -0.63387,0.63219 -2.209444,-0.16354 -2.263292,-1.07423 -0.05385,-0.9107 -0.0338,-0.57799 0.639231,-0.37875 0.673031,0.19924 2.845881,-0.56112 2.899061,-2.29805 0.0532,-1.73693 0.16653,-5.81 -4.177092,-4.81091 z"
           id="path2248"
           clip-path="url(#clipath_lpe_path-effect762)"
           transform="translate(-1.099679,4.0832451)"
           sodipodi:nodetypes="sssssssss" /><path
           style="fill:#ffffff;fill-opacity:1;fill-rule:evenodd;stroke-width:0.181702;paint-order:fill markers stroke"
           d="m 94.676461,136.44419 0.664729,6.04725 c 0,0 0.537325,2.82448 2.265423,1.66912 1.728102,-1.15536 2.492007,-0.7719 2.498367,0.002 0.007,0.77415 2.6456,10.8847 2.74731,12.1835 0.12673,1.6185 1.0908,9.09665 -1.82648,11.62103 -2.917273,2.52438 -6.780804,0.97562 -7.256933,-1.21403 -0.476128,-2.18967 -2.006795,-4.88631 -1.024591,-6.88548 0.982202,-1.99916 2.705366,-0.87447 2.416784,0.12155 -0.288581,0.99601 0.933633,6.99795 1.987073,7.51095 1.053446,0.51299 1.79575,-1.42276 1.79575,-1.42276 0,0 1.759277,-6.37062 1.005966,-11.59029 -0.75331,-5.21965 -1.605141,-9.03148 -1.605141,-9.03148 0,0 -1.659822,1.83577 -3.022486,0.41984 -1.362665,-1.41594 -3.967773,-5.22855 -3.63317,-10.15843 0.262,-3.86018 2.078581,-5.07537 3.541641,-4.48326 1.46306,0.59212 3.142091,1.21989 2.502698,2.86932 -0.639394,1.64943 -1.185021,2.65831 -1.811366,0.28067 -0.626346,-2.37764 -1.69468,-2.20461 -1.526141,-0.60401 z"
           id="path2250"
           sodipodi:nodetypes="ccscsssssscscssssssc" /><path
           style="fill:#ffffff;fill-opacity:1;fill-rule:evenodd;stroke-width:0.264583;paint-order:fill markers stroke"
           d="m 103.50698,143.12705 c 0,0 0.84831,2.28369 1.35334,2.23589 0.50501,-0.0478 0.60818,-0.89582 0.60818,-0.89582 l 1.74187,-0.60028 -1.12908,3.55412 c 0,0 -0.8561,0.40489 -0.80913,0.75011 0.047,0.34523 0.68932,0.42638 0.68932,0.42638 l -1.79082,5.10092 c 0,0 -0.78604,2.74953 1.08734,0.80489 1.87336,-1.94463 3.09894,0.28846 4.07369,0.21987 0.97474,-0.0686 2.16971,-0.81529 2.24232,-1.57755 0.0726,-0.76228 0.49715,-2.24342 0.1085,-2.20466 -0.38866,0.0387 -0.84647,-0.51105 -1.41067,1.13411 -0.56421,1.64515 -2.34842,0.20615 -2.82887,-0.24836 -0.48045,-0.45452 0.92361,-3.60163 0.92361,-3.60163 0,0 1.59565,-0.63043 1.52052,-0.8137 -0.0751,-0.18328 -0.0202,-0.60982 -0.56409,-0.75795 -0.54393,-0.14814 1.44434,-5.02768 0.31451,-5.42238 -1.12982,-0.3947 -2.14937,-0.47408 -3.33772,-0.0953 -0.98666,0.31449 -2.57331,1.17937 -2.79282,1.99138 z"
           id="path2252"
           sodipodi:nodetypes="cscccsccssscsscsssscc" /><path
           style="fill:#ffffff;fill-opacity:1;fill-rule:evenodd;stroke-width:0.264583;paint-order:fill markers stroke"
           d="m 112.2825,141.49273 c -0.46087,0.92411 0.30049,0.88028 0.27406,1.43432 -0.0264,0.55404 0.65226,6.46256 1.2888,7.81878 0.63654,1.35623 4.56871,3.37804 5.12975,-0.0843 0.56105,-3.46237 0.285,-5.54536 -0.0567,-6.50549 -0.34171,-0.96012 -1.15976,-3.92553 -2.02091,-3.59999 -0.86115,0.32553 -0.24279,3.60248 -0.15616,5.45751 0.0866,1.85503 0.57363,5.46368 -0.47358,2.80094 -1.04721,-2.66274 -1.77033,-7.13504 -1.7993,-7.48631 -0.029,-0.35127 -1.60937,-0.84968 -2.18596,0.16457 z"
           id="path2254" /><path
           style="fill:#ffffff;fill-opacity:1;fill-rule:evenodd;stroke-width:0.183432;paint-order:fill markers stroke"
           d="m 119.22727,128.88802 c -0.20686,3.05482 2.8746,9.0782 2.31791,19.11688 -0.55668,10.03866 -0.63808,10.51091 -2.21773,13.54936 -1.57965,3.03845 -2.2521,5.42473 -0.34115,2.89057 1.91095,-2.53417 2.14774,-2.61184 2.56002,-2.48207 0.41228,0.12976 3.87913,1.79637 4.50774,0.65761 0.62861,-1.13876 0.77522,-3.33019 0.305,-5.97723 -0.47021,-2.64703 -1.66836,-4.71788 -1.91328,-1.74077 -0.24493,2.9771 1.8951,3.44757 0.44639,4.30311 -1.44873,0.85555 -2.29136,0.2808 -2.63919,-0.27527 -0.34783,-0.55606 1.01787,-5.31591 1.01787,-5.31591 l 1.29607,-8.0377 c 0,0 0.66568,-10.08384 -0.61388,-13.69887 -1.27955,-3.61503 -3.8864,-15.38489 -4.72577,-2.98971 z"
           id="path2256"
           sodipodi:nodetypes="ssssssssssccss" /></g></g></g></svg>
